<svg id="Layer_1" data-name="Layer 1" xmlns="http://www.w3.org/2000/svg" viewBox="0 0 1957.71 1075.59"><defs><style>.cls-1{fill:#f4f4f4;stroke-width:18px;}.cls-1,.cls-2{stroke:#020202;stroke-miterlimit:10;}.cls-2{font-size:207.13px;fill:#e6575c;stroke-width:4px;font-family:MyriadPro-Regular, Myriad Pro;}.cls-3{letter-spacing:-0.02em;}.cls-4{letter-spacing:-0.01em;}.cls-5{letter-spacing:0em;}.cls-6{letter-spacing:0em;}.cls-7{letter-spacing:-0.01em;}.cls-8{letter-spacing:0em;}.cls-9{fill:#fcce5a;stroke:#050505;}.cls-10{letter-spacing:0em;}.cls-11{letter-spacing:0.02em;}.cls-12{letter-spacing:0.01em;}</style></defs><polygon class="cls-1" points="249.85 278.2 296 122.2 422.91 264.27 636.34 13.55 809.4 200.2 924.77 41.41 1146.85 208.56 1366.06 80.41 1426.63 258.7 1689.09 278.2 1689.09 448.14 1940.02 448.14 1778.5 669.93 1896.76 815.88 1683.32 857.66 1582.14 1008.1 1354.52 832.59 1178.58 1035.96 1048.79 821.45 800.75 1061.03 676.72 840.95 495.01 1035.96 270.04 810.3 39.3 896.66 192.17 657.08 22 533 226.78 493.3 166.21 236.42 249.85 278.2"/><text class="cls-2" transform="translate(341.01 483.2)"><tspan class="cls-3">P</tspan><tspan class="cls-4" x="106.88" y="0">r</tspan><tspan class="cls-5" x="172.54" y="0">ese</tspan><tspan class="cls-6" x="462.09" y="0">n</tspan><tspan class="cls-7" x="576.22" y="0">t</tspan><tspan x="643.54" y="0">ed </tspan><tspan class="cls-8" x="908.03" y="0">B</tspan><tspan x="1021.12" y="0">y</tspan><tspan class="cls-9"><tspan x="0" y="248.55">Sili</tspan><tspan class="cls-7" x="247.92" y="248.55">c</tspan><tspan class="cls-5" x="339.47" y="248.55">on</tspan><tspan class="cls-10" x="568.14" y="248.55">A</tspan><tspan class="cls-11" x="694.28" y="248.55">r</tspan><tspan x="766.98" y="248.55">tists </tspan><tspan class="cls-12" x="1160.51" y="248.55">I</tspan><tspan x="1212.08" y="248.55">nc</tspan></tspan></text></svg>