<svg id="Layer_1" data-name="Layer 1" xmlns="http://www.w3.org/2000/svg" viewBox="0 0 2817.15 1892.35"><defs><style>.cls-1{fill:#e6575c;stroke:#020202;}.cls-1,.cls-2{stroke-miterlimit:10;stroke-width:5px;}.cls-2{fill:#fcce5a;stroke:#050505;}</style></defs><path class="cls-1" d="M-985.53,1301.6l91.39-47.82a1.66,1.66,0,0,1,1.07-.16l185,36.58a1.63,1.63,0,0,1,.58,3l-75.08,49.5a1.66,1.66,0,0,1-1.19.24l-201.27-38.26A1.62,1.62,0,0,1-985.53,1301.6Z" transform="translate(1383.6 -1251.09)"/><path class="cls-1" d="M-670,1299.16l-62.46,44-.09.07-2.69,2.17a1.62,1.62,0,0,0,.58,2.82l70.1,19.87a1.66,1.66,0,0,0,1.37-.23l77.86-54.37a1.62,1.62,0,0,0-.7-2.94l-82.81-11.7A1.6,1.6,0,0,0-670,1299.16Z" transform="translate(1383.6 -1251.09)"/><path class="cls-1" d="M-611.08,1364.88l84.3-55.14a1.59,1.59,0,0,1,1.08-.25L-443,1319a1.63,1.63,0,0,1,.76,2.94l-95.54,67.85a1.6,1.6,0,0,1-1.42.23l-71.43-22.21A1.63,1.63,0,0,1-611.08,1364.88Z" transform="translate(1383.6 -1251.09)"/><path class="cls-2" d="M-970.24,1653.05l-19.3-347.25a1.59,1.59,0,0,1,1.88-1.66l203.35,38.65a1.6,1.6,0,0,1,1.29,1.37l10.94,87.64a1.6,1.6,0,0,1-1.94,1.75l-136.72-31.14a1.59,1.59,0,0,0-2,1.64l4.44,79.59a1.59,1.59,0,0,0,1.2,1.46l143.88,36.67a1.62,1.62,0,0,1,1.2,1.39l7.73,80.69a1.59,1.59,0,0,1-2,1.68l-144.52-41.6a1.59,1.59,0,0,0-2,1.66l9.36,119a1.59,1.59,0,0,1-2.22,1.58l-73.61-31.78A1.59,1.59,0,0,1-970.24,1653.05Z" transform="translate(1383.6 -1251.09)"/><path class="cls-1" d="M-704.15,1293.87l.78,24.93a1.63,1.63,0,0,1-.6,1.31l-33.12,26.78a1.6,1.6,0,0,0-.6,1.31l2.12,68a1.62,1.62,0,0,1-.94,1.52l-33.28,15.37a1.62,1.62,0,0,1-2.29-1.27L-783,1344a1.63,1.63,0,0,1,.71-1.56l73.16-48.23,2.51-1.65A1.62,1.62,0,0,1-704.15,1293.87Z" transform="translate(1383.6 -1251.09)"/><path class="cls-1" d="M-905.82,1483.23l85.88-57.33a1.62,1.62,0,0,0-.54-2.93l-90.23-20.55a1.62,1.62,0,0,0-2,1.67l4.35,77.89A1.62,1.62,0,0,0-905.82,1483.23Z" transform="translate(1383.6 -1251.09)"/><path class="cls-1" d="M-761.49,1521.69l39.15-24.36a1.62,1.62,0,0,0,.75-1.62l-7.67-51a1.61,1.61,0,0,0-1.24-1.34L-816.12,1424a1.6,1.6,0,0,0-1.26.23l-87.78,58.6a1.62,1.62,0,0,0,.5,2.92l141.91,36.17A1.64,1.64,0,0,0-761.49,1521.69Z" transform="translate(1383.6 -1251.09)"/><path class="cls-1" d="M-751.81,1604.85l26.17-15.74a1.62,1.62,0,0,0,.79-1.32l3.3-88a1.62,1.62,0,0,0-2.47-1.44l-37.21,23.14a1.64,1.64,0,0,0-.76,1.53l7.73,80.57A1.62,1.62,0,0,0-751.81,1604.85Z" transform="translate(1383.6 -1251.09)"/><path class="cls-1" d="M-804.24,1635.48l-1.34-43a1.61,1.61,0,0,0-1.17-1.51l-94-27.06a1.63,1.63,0,0,0-2.07,1.69l9.37,119.08A1.62,1.62,0,0,0-891,1686l86-49A1.62,1.62,0,0,0-804.24,1635.48Z" transform="translate(1383.6 -1251.09)"/><path class="cls-2" d="M-737.59,1349.63-713,1767.47a1.59,1.59,0,0,0,.87,1.32l84,43.18a1.59,1.59,0,0,0,2.31-1.56l-38-441a1.59,1.59,0,0,0-1.16-1.39l-70.63-20A1.59,1.59,0,0,0-737.59,1349.63Z" transform="translate(1383.6 -1251.09)"/><path class="cls-1" d="M-574,1340.64l-7.47-27.11a1.62,1.62,0,0,0-2.51-1l-79.11,55.24a1.61,1.61,0,0,0-.69,1.47l38,441.85a1.62,1.62,0,0,0,2.22,1.36l37.87-15.13a1.61,1.61,0,0,0,1-1.61l-29.24-427.85a1.61,1.61,0,0,1,.93-1.58l32.78-21.37Z" transform="translate(1383.6 -1251.09)"/><path class="cls-2" d="M-611.74,1367.46l72.1,22.42a1.58,1.58,0,0,1,1.12,1.57c-.89,23.93-13.67,394.39,40.8,410.67,56.05,16.76,42.35-242.3,38.87-391.55A1.58,1.58,0,0,1-457,1409l74.73,12.65a1.59,1.59,0,0,1,1.32,1.46c1.91,28.45,33.49,532.94-130.09,449,0,0-48.5-26.24-73.38-74.86a1.52,1.52,0,0,1-.17-.63l-29.22-427.48A1.59,1.59,0,0,1-611.74,1367.46Z" transform="translate(1383.6 -1251.09)"/><path class="cls-1" d="M-437,1388.25c-1.81-7.34-1.88-53.16-1.87-65.65a1.62,1.62,0,0,0-2.56-1.31l-96.42,68.48a1.63,1.63,0,0,0-.68,1.27c-.56,19.3-10.25,379.65,43.82,409.24s36.72-370.89,35.82-390.86a1.6,1.6,0,0,1,.55-1.28l20.83-18.3A1.62,1.62,0,0,0-437,1388.25Z" transform="translate(1383.6 -1251.09)"/><path class="cls-1" d="M-369.16,1336.31l-86.93,70.08a1.62,1.62,0,0,0,.74,2.86l73.63,12.47a1.56,1.56,0,0,0,1.25-.31l92.85-70.74a1.63,1.63,0,0,0-.75-2.9l-79.54-11.8A1.58,1.58,0,0,0-369.16,1336.31Z" transform="translate(1383.6 -1251.09)"/><path class="cls-1" d="M-481.81,1881.24s29.79,13.66,123.67-38.66a1.63,1.63,0,0,0,.83-1.52c-1.15-18.31-15.88-280.33,74.68-421.89a1.62,1.62,0,0,0,.25-.91l-2.09-66.77a1.62,1.62,0,0,0-2.6-1.24l-93.32,71.11a1.58,1.58,0,0,0-.64,1.27C-381.19,1444.33-385.78,1908.15-481.81,1881.24Z" transform="translate(1383.6 -1251.09)"/><path class="cls-1" d="M-180.69,1353.2c5.51-.38,63.69-1.9,137.14,94.92a1.63,1.63,0,0,1-.47,2.39l-29.56,17.43a1.6,1.6,0,0,0-.8,1.41l2.87,434.45a1.63,1.63,0,0,1-1,1.52l-189,74.62a1.63,1.63,0,0,1-2.14-1l-65.26-195.48a1.64,1.64,0,0,1-.07-.73l48.22-363.22a1.59,1.59,0,0,1,.72-1.14l98.62-64.9A1.52,1.52,0,0,1-180.69,1353.2Z" transform="translate(1383.6 -1251.09)"/><path class="cls-2" d="M-280,1418.72a1.59,1.59,0,0,0-1.16.62c-44.75,59.23-68.38,225.93-68.38,225.93-39.89,339.93,81.65,335.59,86.23,335.31h.27c4.78.58,134.22,13.5,141.76-280.2C-113.86,1412.71-268.06,1417.89-280,1418.72Zm100.35,301.15c-21.66,181.07-62.63,171.41-68.4,169.09a1.57,1.57,0,0,0-1.34.07c-5.3,2.78-41.38,15.06-55.3-155.1-14.57-178.09,65-180.47,70-180.45a1.36,1.36,0,0,0,.49-.08C-229.45,1551.87-157,1531.1-179.62,1719.87Z" transform="translate(1383.6 -1251.09)"/><path class="cls-1" d="M201.89,2194.66l74.46-51.12a.76.76,0,0,0,.33-.61l7.53-401.12a.76.76,0,0,0-1-.72L93.46,1812.66a.76.76,0,0,0-.46.92l107.73,380.67A.76.76,0,0,0,201.89,2194.66Z" transform="translate(1383.6 -1251.09)"/><path class="cls-1" d="M-74.39,1468.41,41,1393s171.84-3.6,251.63,132.9l-10.1,11.4,1.71,203.37-112.86,67.59-183.3-76.2-18.34-202.73Z" transform="translate(1383.6 -1251.09)"/><path class="cls-2" d="M-69.57,1469.94l-2.69,605a1.6,1.6,0,0,0,1,1.47l83.89,35.42a1.6,1.6,0,0,0,2.21-1.5l-4.19-239.74a1.59,1.59,0,0,1,3.11-.5l89.51,283.37a1.59,1.59,0,0,0,.9,1L198,2194a1.59,1.59,0,0,0,2.15-1.9L93.6,1815.7a1.59,1.59,0,0,1,2-2c119.74,34.81,141.19-118,141.19-118C273,1492.86-42.11,1469.89-67.9,1468.35A1.58,1.58,0,0,0-69.57,1469.94Zm212.89,199.64c-13.95,95.12-119.83,49.24-130.89,44.17a1.57,1.57,0,0,1-.92-1.46L12.86,1573a1.59,1.59,0,0,1,1.6-1.58C30.17,1571.53,157.13,1575.39,143.32,1669.58Z" transform="translate(1383.6 -1251.09)"/><path class="cls-1" d="M16.13,2111.53,72,2056a.74.74,0,0,0,.19-.76L12,1864.6a.76.76,0,0,0-1.48.24L14.84,2111A.76.76,0,0,0,16.13,2111.53Z" transform="translate(1383.6 -1251.09)"/><path class="cls-1" d="M378.28,1481l-95.22,56a.21.21,0,0,0,.08.39l92.57,9.88a.19.19,0,0,0,.13,0l82.8-47.62a.21.21,0,0,0-.06-.38L378.43,1481A.21.21,0,0,0,378.28,1481Z" transform="translate(1383.6 -1251.09)"/><path class="cls-2" d="M276.76,2244.23l5.74-705.14a1.6,1.6,0,0,1,1.77-1.57l90.08,9.62a1.6,1.6,0,0,1,1.43,1.59l-.9,747.62a1.6,1.6,0,0,1-2.36,1.4l-94.93-52.11A1.63,1.63,0,0,1,276.76,2244.23Z" transform="translate(1383.6 -1251.09)"/><path class="cls-1" d="M459.13,1500.44,460.9,1557a.63.63,0,0,1-.36.59l-11.88,5.86a.62.62,0,0,0-.35.54L421,2250.88a.63.63,0,0,1-.17.42L376,2297.9a.63.63,0,0,1-1.09-.44l.9-749.8a.62.62,0,0,1,.32-.55l82.08-47.2A.64.64,0,0,1,459.13,1500.44Z" transform="translate(1383.6 -1251.09)"/><path class="cls-1" d="M449.06,1563.15l106.27-66.72a.37.37,0,0,1,.23,0l73.73,9.74a.34.34,0,0,1,.17.61L535,1580.4a.33.33,0,0,1-.27.06l-85.5-16.68A.35.35,0,0,1,449.06,1563.15Z" transform="translate(1383.6 -1251.09)"/><path class="cls-1" d="M666.36,2067.76,535,1581.26a1.19,1.19,0,0,1,.41-1.25l93.3-72.72a1.19,1.19,0,0,1,1.87.58L705.72,1747a1.2,1.2,0,0,1,0,.5L668.7,2067.59A1.2,1.2,0,0,1,666.36,2067.76Z" transform="translate(1383.6 -1251.09)"/><polygon class="cls-1" points="2111.45 359.17 2228.37 382.45 2314.17 302.44 2198.91 282.46 2111.45 359.17"/><path class="cls-1" d="M918.83,1622.84l11.5-67.9a.48.48,0,0,0-.81-.43l-84.62,78.9a.48.48,0,0,0-.15.31l-74,849.43a.48.48,0,0,0,.76.44l49-34.27a.47.47,0,0,0,.2-.36l57.11-798.23a.47.47,0,0,1,.21-.36l40.6-27.21A.47.47,0,0,0,918.83,1622.84Z" transform="translate(1383.6 -1251.09)"/><path class="cls-1" d="M514.31,2384.75l98.87-72a.46.46,0,0,0,.17-.55l-88.92-247a.48.48,0,0,0-.94.15l-10,319A.48.48,0,0,0,514.31,2384.75Z" transform="translate(1383.6 -1251.09)"/><path class="cls-2" d="M511.2,2384l-94.7-55.52a1.6,1.6,0,0,1-.79-1.44l32.53-761.56a1.59,1.59,0,0,1,1.9-1.49l83.72,16.33a1.6,1.6,0,0,1,1.23,1.15L665.89,2066a1.59,1.59,0,0,0,3.12-.21L727.63,1612a1.6,1.6,0,0,1,1.89-1.36l113.85,22.67a1.59,1.59,0,0,1,1.27,1.7l-73.8,847.14a1.59,1.59,0,0,1-2.14,1.35l-123.51-46.18a1.58,1.58,0,0,1-1-1L525.91,2086.65a1.59,1.59,0,0,0-3.1.46l-9.22,295.54A1.59,1.59,0,0,1,511.2,2384Z" transform="translate(1383.6 -1251.09)"/><path class="cls-2" d="M879.6,1650.84l375.6,72.76a1.6,1.6,0,0,1,1.29,1.65l-11.75,209.36a1.59,1.59,0,0,1-2.07,1.43l-213.49-68a1.6,1.6,0,0,0-2.07,1.51l-1.62,192a1.6,1.6,0,0,0,1,1.49l202,82.65a1.6,1.6,0,0,1,1,1.51l-3.56,178.08a1.6,1.6,0,0,1-2.11,1.48l-238.67-82.41a1.59,1.59,0,0,0-2.11,1.42l-8.54,164.33a1.6,1.6,0,0,0,1,1.56l248.39,99.77a1.59,1.59,0,0,1,1,1.55l-8.61,195a1.59,1.59,0,0,1-2.28,1.37L820.71,2518.75a1.6,1.6,0,0,1-.89-1.54l57.89-864.91A1.59,1.59,0,0,1,879.6,1650.84Z" transform="translate(1383.6 -1251.09)"/><polygon class="cls-1" points="2261.43 399.4 2403.59 288.85 2808.37 402.45 2640.16 472.77 2261.43 399.4"/><path class="cls-1" d="M1245.71,1936.19l184.9-81.26a.72.72,0,0,0,.43-.69l-6.24-199.64a.72.72,0,0,0-1-.65L1257,1723.69a.72.72,0,0,0-.44.63l-11.85,211.16A.73.73,0,0,0,1245.71,1936.19Z" transform="translate(1383.6 -1251.09)"/><path class="cls-1" d="M1207.86,1966.6l-1.29-41.56a.75.75,0,0,0-.51-.67l-178-56.71a.72.72,0,0,0-1,.68l-1.63,193a.73.73,0,0,0,1.07.65l180.92-94.78A.72.72,0,0,0,1207.86,1966.6Z" transform="translate(1383.6 -1251.09)"/><path class="cls-1" d="M1229.79,2145.9l167.41-94.24a.73.73,0,0,0-.07-1.3l-188.93-83.17a.73.73,0,0,0-.63,0l-180.7,94.67a.72.72,0,0,0,.06,1.31l202.23,82.75A.7.7,0,0,0,1229.79,2145.9Z" transform="translate(1383.6 -1251.09)"/><path class="cls-1" d="M1228.69,2325.17l159.8-127.84a1.68,1.68,0,0,0,.64-1.22l9.13-142a1.7,1.7,0,0,0-2.53-1.59l-165.4,93.12a1.7,1.7,0,0,0-.87,1.45l-3.53,176.76A1.7,1.7,0,0,0,1228.69,2325.17Z" transform="translate(1383.6 -1251.09)"/><path class="cls-1" d="M977.25,2409.25l159.34-109.77a1.69,1.69,0,0,0-.41-3l-150.93-52.12a1.7,1.7,0,0,0-2.25,1.52l-8.41,161.88A1.7,1.7,0,0,0,977.25,2409.25Z" transform="translate(1383.6 -1251.09)"/><path class="cls-1" d="M1225.69,2511.07l143.87-135.34a1.71,1.71,0,0,0-.44-2.78L1244,2314.16a1.67,1.67,0,0,0-1.78.21l-15.61,12.49a1.72,1.72,0,0,1-1.62.27l-84.8-29.27a1.71,1.71,0,0,0-1.52.2L977,2409.41a1.7,1.7,0,0,0,.33,3l246.55,99A1.67,1.67,0,0,0,1225.69,2511.07Z" transform="translate(1383.6 -1251.09)"/><path class="cls-1" d="M1218.75,2708.39l128.5-97.76a1.58,1.58,0,0,0,.6-1.08L1371,2378.11a1.54,1.54,0,0,0-2.59-1.27l-143,134.55a1.5,1.5,0,0,0-.48,1.05l-8.6,194.65A1.54,1.54,0,0,0,1218.75,2708.39Z" transform="translate(1383.6 -1251.09)"/><path class="cls-1" d="M-1381.1,1972.89v457.49a1.66,1.66,0,0,0,.62,1.29l75.8,60.19a1.65,1.65,0,0,0,2.67-1.23l16.11-428a1.71,1.71,0,0,0-.5-1.24l-91.9-89.66A1.65,1.65,0,0,0-1381.1,1972.89Z" transform="translate(1383.6 -1251.09)"/><path class="cls-1" d="M-1121.06,1881c-16.79,4.78-231.73,78.34-257.52,87.17a1.64,1.64,0,0,0-.61,2.73l92.6,90.34a1.66,1.66,0,0,0,1.66.38l270.31-89.34a1.64,1.64,0,0,0,.54-2.82l-105.47-88.14A1.65,1.65,0,0,0-1121.06,1881Z" transform="translate(1383.6 -1251.09)"/><path class="cls-1" d="M-1194.36,2202.19l179.73-51.24a1.65,1.65,0,0,0,.67-2.8l-59.13-54.69c-.41-.38-5.6-6.36-6.14-6.22l-116,36.27a1.65,1.65,0,0,0-1.25,1.59v75.51A1.65,1.65,0,0,0-1194.36,2202.19Z" transform="translate(1383.6 -1251.09)"/><path class="cls-1" d="M-1062.52,2372.34l152.71,94.94a1.65,1.65,0,0,0,2.09-2.29c-11.8-22.17-64.72-133.17-50.48-317.17,14.34-185.42,105.9-228.19,124.6-235a1.64,1.64,0,0,0,.3-3l-100.57-61.42a1.58,1.58,0,0,0-.76-.24c-5.74-.32-69.92-1.71-113.41,90.22a1.66,1.66,0,0,0,.46,2l37.59,30.42a1.66,1.66,0,0,1,.61,1.28v88.76a1.64,1.64,0,0,1-.93,1.48l-68.47,24.2c-1,.51,6.39,7.18,7.26,8l61.59,55.16a1.64,1.64,0,0,1,.55,1.23v89.31a1.66,1.66,0,0,1-1.27,1.61l-64.19,15.16a.9.9,0,0,0-.22.06l-6.94,2.69a1.65,1.65,0,0,0-1,1.37c-.78,8.12,4.14,42.61,19.52,109.87A1.86,1.86,0,0,0-1062.52,2372.34Z" transform="translate(1383.6 -1251.09)"/><path class="cls-2" d="M-1300.08,2493.47-1182,2469.4a1.64,1.64,0,0,0,1.31-1.75l-15.62-182.92a1.63,1.63,0,0,1,1.27-1.74l182-41.2a1.65,1.65,0,0,0,1.29-1.61v-87.86a1.65,1.65,0,0,0-2.1-1.58l-180.45,51.45a1.65,1.65,0,0,1-2.1-1.58V2125a1.66,1.66,0,0,1,1.13-1.56l182.39-61.18a1.63,1.63,0,0,0,1.13-1.56v-87.12A1.65,1.65,0,0,0-1014,1972l-270.81,89.51a1.65,1.65,0,0,0-1.13,1.5l-16.14,428.76A1.65,1.65,0,0,0-1300.08,2493.47Z" transform="translate(1383.6 -1251.09)"/><path class="cls-2" d="M-828.83,1912.2a1.66,1.66,0,0,1,.7,0c8.6,2.23,174.13,48.47,156,301.85-18.12,253.62-149.57,267.32-156.14,267.85a2,2,0,0,0-.41.09c-1.13.36-9.91,1.48-72.62-12.46C-970.89,2454.09-1017.33,1943.74-828.83,1912.2Z" transform="translate(1383.6 -1251.09)"/><path class="cls-1" d="M-820.7,2388.59s-48.16,28.33-63.48-202.75a.43.43,0,0,1,0-.16c.16-4.08,6.82-162.45,55.73-157.86,49.55,4.65,74.33,103,74.33,103s12.38,41,0,140.13S-820.7,2388.59-820.7,2388.59Z" transform="translate(1383.6 -1251.09)"/><path class="cls-2" d="M-637.08,1884.7c1.46,10,.08,533.7,0,571.43a1.65,1.65,0,0,0,2.07,1.6l111.2-29.31a1.64,1.64,0,0,0,1.22-1.69l-15.06-242.57a1.65,1.65,0,0,1,2.95-1.1l174.11,226.35a1.69,1.69,0,0,0,1.73.59l100.32-26.21a1.65,1.65,0,0,0,.91-2.57L-416,2168.11a1.64,1.64,0,0,1,.67-2.49c15.28-6.47,115.5-54.31,112.64-196.64-3.05-151.73-233.63-121.81-240.61-120.87a1.65,1.65,0,0,0-.32.07L-636,1880.34a1.64,1.64,0,0,0-1.1,1.55v2.6A1.49,1.49,0,0,0-637.08,1884.7Z" transform="translate(1383.6 -1251.09)"/><path class="cls-1" d="M-766.76,1796.64l128.94,87.46a1.66,1.66,0,0,1,.72,1.37v569.18a1.65,1.65,0,0,1-2.73,1.24l-74.78-65.28a1.66,1.66,0,0,1-.33-2.08c6-10.13,47.5-87.4,44.23-277.69a1.49,1.49,0,0,0,0-.36c-1.31-5.39-33.31-134.49-90.62-162a1.65,1.65,0,0,1-.93-1.4l-7-149A1.64,1.64,0,0,1-766.76,1796.64Z" transform="translate(1383.6 -1251.09)"/><path class="cls-1" d="M-356.71,1869.38l-113-103.84a1.62,1.62,0,0,0-.42-.28c-4.86-2.26-87-37.85-296,28.47a1.65,1.65,0,0,0-.41,3l128.66,83.52a1.65,1.65,0,0,0,1.65.08c12-6.22,150.16-75,277.68-8.24A1.64,1.64,0,0,0-356.71,1869.38Z" transform="translate(1383.6 -1251.09)"/><path class="cls-1" d="M-368.71,2404.15l-139.54-97.38a1.7,1.7,0,0,1-.52-.61l-24.14-47.54a1.8,1.8,0,0,1-.18-.64l-4.58-73.82a1.65,1.65,0,0,1,2.95-1.1l168.26,218.74A1.65,1.65,0,0,1-368.71,2404.15Z" transform="translate(1383.6 -1251.09)"/><path class="cls-1" d="M-536.46,1957.74v115a1.65,1.65,0,0,0,1.5,1.64c13.84,1.24,119.18,8,117.73-74.47-1.46-83.27-106.29-48-118.14-43.75A1.63,1.63,0,0,0-536.46,1957.74Z" transform="translate(1383.6 -1251.09)"/><path class="cls-2" d="M540.35,2320.25l40.17,702.29a.77.77,0,0,0,.77.73H651a.77.77,0,0,0,.77-.76l12.36-702.29a.77.77,0,0,0-.77-.78H541.12A.77.77,0,0,0,540.35,2320.25Z" transform="translate(1383.6 -1251.09)"/><path class="cls-1" d="M473.44,2255.11l66.63,64.06a.78.78,0,0,0,.58.27H662.72a.78.78,0,0,0,.64-1.21l-48.47-71.92a.78.78,0,0,0-.73-.34l-140.23,7.86A.77.77,0,0,0,473.44,2255.11Z" transform="translate(1383.6 -1251.09)"/><path class="cls-1" d="M532.21,2965.84l-59.59-709.56a.77.77,0,0,1,1.35-.57l66.16,63.53a.76.76,0,0,1,.19.46l40.1,701.05a.78.78,0,0,1-1.39.52l-46.66-55A.8.8,0,0,1,532.21,2965.84Z" transform="translate(1383.6 -1251.09)"/><rect class="cls-2" x="1964.16" y="1818.63" width="65.03" height="71.23" rx="0.77"/><path class="cls-1" d="M537.31,3033.68v61.66a.77.77,0,0,0,.26.58l41.71,43.89a.77.77,0,0,0,1.28-.58v-69.1a.76.76,0,0,0-.33-.64L538.52,3033A.77.77,0,0,0,537.31,3033.68Z" transform="translate(1383.6 -1251.09)"/><path class="cls-1" d="M599.43,3032.33l44,36a.77.77,0,0,1-.42,1.42H580.8a.79.79,0,0,1-.44-.14l-41-36a.77.77,0,0,1,.44-1.41H599A.77.77,0,0,1,599.43,3032.33Z" transform="translate(1383.6 -1251.09)"/><path class="cls-1" d="M190.66,3085.89l-146.07-99a1.46,1.46,0,0,1-.65-1.21v-639a1.47,1.47,0,0,1,2.32-1.2L133,2406.9a1.45,1.45,0,0,1,.61,1.36c-2.55,22.33-52.84,477.07,59.11,675.71A1.46,1.46,0,0,1,190.66,3085.89Z" transform="translate(1383.6 -1251.09)"/><path class="cls-1" d="M-807.46,2407.76l180.51,305.94a1.47,1.47,0,0,1-1.73,2.14l-125.78-41.93a1.47,1.47,0,0,1-.84-.71l-171-325.11a1.47,1.47,0,0,1,2-2l116.23,61.1A1.46,1.46,0,0,1-807.46,2407.76Z" transform="translate(1383.6 -1251.09)"/><path class="cls-1" d="M-760.29,2333.12l-163,10.46a1.47,1.47,0,0,0-.59,2.76L-808,2407.23a1.49,1.49,0,0,0,.68.17h125.9a1.47,1.47,0,0,0,1-2.55l-78.79-71.36A1.46,1.46,0,0,0-760.29,2333.12Z" transform="translate(1383.6 -1251.09)"/><path class="cls-1" d="M-587.18,2510.44l60.14,81.18a1.48,1.48,0,0,0,2.36,0l152.94-205a1.46,1.46,0,0,0-.08-1.85l-72.28-81.32a1.48,1.48,0,0,0-2.31.14l-140.8,205.08A1.49,1.49,0,0,0-587.18,2510.44Z" transform="translate(1383.6 -1251.09)"/><path class="cls-1" d="M-324.18,2302.4l95.53,71.65a1.47,1.47,0,0,1-.79,2.64l-140.87,9a1.46,1.46,0,0,1-1.19-.49l-71.68-80.64a1.47,1.47,0,0,1,1.1-2.44h117A1.45,1.45,0,0,1-324.18,2302.4Z" transform="translate(1383.6 -1251.09)"/><path class="cls-1" d="M-627.36,3102.18l-124-102.86a1.43,1.43,0,0,1-.53-1.11L-755,2675.78a1.47,1.47,0,0,1,1.93-1.41L-626,2716.74a1.47,1.47,0,0,1,1,1.4v382.92A1.46,1.46,0,0,1-627.36,3102.18Z" transform="translate(1383.6 -1251.09)"/><path class="cls-1" d="M-250.85,3084.68a1.47,1.47,0,0,0,2.07-2c-20.75-31.64-99.81-173.15-34.76-409,74.32-269.42,153.29-283.35,185.81-288s94.8,21.68,94.8,21.68l-136-89.59a1.58,1.58,0,0,0-.48-.33c-3.29-1.41-29.21-17.27-60.52-15.37-65.79,4-80.28,24.77-82.86,29.85a1.44,1.44,0,0,0,.44,1.81l55.75,41.82a1.46,1.46,0,0,1,.32,2l-218.81,316.82a1.43,1.43,0,0,0-.26.83V2947a1.49,1.49,0,0,0,.63,1.2Z" transform="translate(1383.6 -1251.09)"/><path class="cls-2" d="M-243.56,3089.88c6.47,5,190.79,144.59,307.92-200.55a1.6,1.6,0,0,0,0-.21c1.28-7.13,78.35-393.25-90.68-501.65-.12-.08.09.11,0,0-4.39-5.24-153.47-110.36-261,302,0,0-67.87,239.87,43.43,400.13A1.57,1.57,0,0,0-243.56,3089.88Z" transform="translate(1383.6 -1251.09)"/><path class="cls-1" d="M-109.29,2620a1.36,1.36,0,0,0-.45.12c-4.62,2-81.81,37.49-81.81,151.65,0,117.67,34.06,164.13,68.13,167.22s82.89-24.77,89.44-176.51C-27.63,2615.51-104.48,2619.63-109.29,2620Z" transform="translate(1383.6 -1251.09)"/><path class="cls-2" d="M-623.49,3104.18h176.68a1.46,1.46,0,0,0,1.46-1.47V2695.24a1.43,1.43,0,0,1,.26-.83l217.9-315.49a1.46,1.46,0,0,0-1.3-2.29l-141.86,9a1.46,1.46,0,0,0-1.08.59L-524.74,2591.7a1.46,1.46,0,0,1-2.31.05l-150.11-183.81a1.48,1.48,0,0,0-1.14-.54H-805.1a1.46,1.46,0,0,0-1.26,2.21l181.2,307.12a1.53,1.53,0,0,1,.2.75v385.23A1.47,1.47,0,0,0-623.49,3104.18Z" transform="translate(1383.6 -1251.09)"/><path class="cls-2" d="M135.09,2407.4a1.46,1.46,0,0,0-1.46,1.33c-3.11,34.26-63.14,721,127.09,713,194.78-8.22,232.13-446.53,204.52-713a1.47,1.47,0,0,0-1.46-1.31h-121a1.47,1.47,0,0,0-1.47,1.49c.52,27.54,7.24,428.86-43.49,425.87-52.41-3.09-64.86-228.07-68-425.92a1.46,1.46,0,0,0-1.46-1.44Z" transform="translate(1383.6 -1251.09)"/><path class="cls-1" d="M47.16,2346.19l86.21,60.94a1.43,1.43,0,0,0,.85.27h92a1.47,1.47,0,0,0,1-2.5l-71.33-71.33a1.44,1.44,0,0,0-1.18-.42L47.87,2343.54A1.46,1.46,0,0,0,47.16,2346.19Z" transform="translate(1383.6 -1251.09)"/><path class="cls-1" d="M275.52,2346.16,340.81,2407a1.48,1.48,0,0,0,1,.39h120a1.46,1.46,0,0,0,1.08-2.46l-65.39-71.33a1.46,1.46,0,0,0-1.2-.47l-119.87,10.49A1.46,1.46,0,0,0,275.52,2346.16Z" transform="translate(1383.6 -1251.09)"/><path class="cls-1" d="M240.47,2648.7l32.32-301.87a1.47,1.47,0,0,1,2.46-.91l65.52,61a1.43,1.43,0,0,1,.47,1.06c.1,18.06,1.83,420.67-43.47,426.73-45.68,6.1-57-180.49-57.31-185.82A1.93,1.93,0,0,1,240.47,2648.7Z" transform="translate(1383.6 -1251.09)"/></svg>